<mxfile host="65bd71144e">
    <diagram id="9KsVTwV-KlNlHXXC-0a5" name="PÃ¡gina-1">
        <mxGraphModel dx="662" dy="411" grid="1" gridSize="10" guides="1" tooltips="1" connect="1" arrows="1" fold="1" page="1" pageScale="1" pageWidth="827" pageHeight="1169" math="0" shadow="0">
            <root>
                <mxCell id="0"/>
                <mxCell id="1" parent="0"/>
                <mxCell id="3" style="edgeStyle=none;html=1;" parent="1" source="2" target="4" edge="1">
                    <mxGeometry relative="1" as="geometry">
                        <mxPoint x="300" y="170" as="targetPoint"/>
                    </mxGeometry>
                </mxCell>
                <mxCell id="2" value="INICIO" style="ellipse;whiteSpace=wrap;html=1;fillColor=#d80073;fontColor=#ffffff;strokeColor=#A50040;" parent="1" vertex="1">
                    <mxGeometry x="240" y="30" width="120" height="80" as="geometry"/>
                </mxCell>
                <mxCell id="5" style="edgeStyle=none;html=1;" parent="1" source="4" edge="1">
                    <mxGeometry relative="1" as="geometry">
                        <mxPoint x="300" y="280" as="targetPoint"/>
                    </mxGeometry>
                </mxCell>
                <mxCell id="4" value="ing" style="shape=parallelogram;perimeter=parallelogramPerimeter;whiteSpace=wrap;html=1;fixedSize=1;fillColor=#6a00ff;fontColor=#ffffff;strokeColor=#3700CC;" parent="1" vertex="1">
                    <mxGeometry x="240" y="160" width="120" height="60" as="geometry"/>
                </mxCell>
                <mxCell id="7" style="edgeStyle=none;html=1;" parent="1" source="6" edge="1">
                    <mxGeometry relative="1" as="geometry">
                        <mxPoint x="170" y="400" as="targetPoint"/>
                        <Array as="points">
                            <mxPoint x="170" y="320"/>
                        </Array>
                    </mxGeometry>
                </mxCell>
                <mxCell id="9" style="edgeStyle=none;html=1;" parent="1" source="6" edge="1">
                    <mxGeometry relative="1" as="geometry">
                        <mxPoint x="470" y="400" as="targetPoint"/>
                        <Array as="points">
                            <mxPoint x="470" y="320"/>
                        </Array>
                    </mxGeometry>
                </mxCell>
                <mxCell id="6" value="ing &amp;gt; 945200" style="rhombus;whiteSpace=wrap;html=1;fillColor=#e51400;fontColor=#ffffff;strokeColor=#B20000;" parent="1" vertex="1">
                    <mxGeometry x="260" y="280" width="80" height="80" as="geometry"/>
                </mxCell>
                <mxCell id="8" value="rta = prestamo no aprobado" style="shape=document;whiteSpace=wrap;html=1;boundedLbl=1;fillColor=#1ba1e2;fontColor=#ffffff;strokeColor=#006EAF;" parent="1" vertex="1">
                    <mxGeometry x="110" y="400" width="120" height="80" as="geometry"/>
                </mxCell>
                <mxCell id="11" style="edgeStyle=none;html=1;" parent="1" source="10" edge="1">
                    <mxGeometry relative="1" as="geometry">
                        <mxPoint x="474" y="510" as="targetPoint"/>
                    </mxGeometry>
                </mxCell>
                <mxCell id="10" value="deuda" style="shape=parallelogram;perimeter=parallelogramPerimeter;whiteSpace=wrap;html=1;fixedSize=1;fillColor=#1ba1e2;fontColor=#ffffff;strokeColor=#006EAF;" parent="1" vertex="1">
                    <mxGeometry x="414" y="400" width="120" height="60" as="geometry"/>
                </mxCell>
                <mxCell id="13" style="edgeStyle=none;html=1;" parent="1" source="12" edge="1">
                    <mxGeometry relative="1" as="geometry">
                        <mxPoint x="350" y="630" as="targetPoint"/>
                        <Array as="points">
                            <mxPoint x="350" y="550"/>
                        </Array>
                    </mxGeometry>
                </mxCell>
                <mxCell id="14" style="edgeStyle=none;html=1;" parent="1" source="12" edge="1">
                    <mxGeometry relative="1" as="geometry">
                        <mxPoint x="580" y="630" as="targetPoint"/>
                        <Array as="points">
                            <mxPoint x="580" y="550"/>
                        </Array>
                    </mxGeometry>
                </mxCell>
                <mxCell id="12" value="deuda == 0" style="rhombus;whiteSpace=wrap;html=1;fillColor=#fa6800;strokeColor=#C73500;fontColor=#000000;" parent="1" vertex="1">
                    <mxGeometry x="434" y="510" width="80" height="80" as="geometry"/>
                </mxCell>
                <mxCell id="18" style="edgeStyle=none;html=1;entryX=0.583;entryY=0.763;entryDx=0;entryDy=0;entryPerimeter=0;" parent="1" source="15" target="16" edge="1">
                    <mxGeometry relative="1" as="geometry">
                        <mxPoint x="610" y="800" as="targetPoint"/>
                        <Array as="points">
                            <mxPoint x="354" y="800"/>
                            <mxPoint x="600" y="800"/>
                        </Array>
                    </mxGeometry>
                </mxCell>
                <mxCell id="15" value="rta = prestamo no aprobado" style="shape=document;whiteSpace=wrap;html=1;boundedLbl=1;fillColor=#6a00ff;fontColor=#ffffff;strokeColor=#3700CC;" parent="1" vertex="1">
                    <mxGeometry x="294" y="630" width="120" height="80" as="geometry"/>
                </mxCell>
                <mxCell id="16" value="rta = prestamo no aprobado" style="shape=document;whiteSpace=wrap;html=1;boundedLbl=1;fillColor=#6a00ff;fontColor=#ffffff;strokeColor=#3700CC;" parent="1" vertex="1">
                    <mxGeometry x="530" y="630" width="120" height="80" as="geometry"/>
                </mxCell>
                <mxCell id="19" value="" style="endArrow=none;html=1;exitX=0.542;exitY=0.813;exitDx=0;exitDy=0;exitPerimeter=0;" parent="1" source="8" edge="1">
                    <mxGeometry width="50" height="50" relative="1" as="geometry">
                        <mxPoint x="190" y="490" as="sourcePoint"/>
                        <mxPoint x="180" y="840" as="targetPoint"/>
                    </mxGeometry>
                </mxCell>
                <mxCell id="23" value="" style="endArrow=none;html=1;" parent="1" edge="1">
                    <mxGeometry width="50" height="50" relative="1" as="geometry">
                        <mxPoint x="180" y="840" as="sourcePoint"/>
                        <mxPoint x="490" y="840" as="targetPoint"/>
                    </mxGeometry>
                </mxCell>
                <mxCell id="24" value="" style="endArrow=none;html=1;" parent="1" edge="1">
                    <mxGeometry width="50" height="50" relative="1" as="geometry">
                        <mxPoint x="490" y="800" as="sourcePoint"/>
                        <mxPoint x="490" y="840" as="targetPoint"/>
                    </mxGeometry>
                </mxCell>
                <mxCell id="25" value="" style="endArrow=classic;html=1;" parent="1" target="26" edge="1">
                    <mxGeometry width="50" height="50" relative="1" as="geometry">
                        <mxPoint x="320" y="840" as="sourcePoint"/>
                        <mxPoint x="320" y="920" as="targetPoint"/>
                    </mxGeometry>
                </mxCell>
                <mxCell id="26" value="FIN" style="ellipse;whiteSpace=wrap;html=1;fillColor=#d80073;fontColor=#ffffff;strokeColor=#A50040;" parent="1" vertex="1">
                    <mxGeometry x="260" y="910" width="120" height="80" as="geometry"/>
                </mxCell>
            </root>
        </mxGraphModel>
    </diagram>
</mxfile>